<svg width="10" height="17" viewBox="0 0 10 17" fill="none" xmlns="http://www.w3.org/2000/svg">
<path d="M6.87437 3.61214C6.89801 3.58541 7.00854 3.4981 7.44262 3.4981L8.75898 3.49757C9.22197 3.49757 9.59847 3.12027 9.59847 2.65645V0.844563C9.59847 0.381535 9.2225 0.00423342 8.7603 0.00343964L7.4081 0C6.10336 0 5.32169 0.0911452 4.52802 0.907C3.73791 1.71915 3.32021 2.85291 3.32021 4.1855V5.86947H1.70303C1.24003 5.86947 0.863403 6.24678 0.863403 6.7106V8.71431C0.863403 9.17813 1.24003 9.55543 1.70303 9.55543H3.32021V16.1589C3.32021 16.6227 3.69684 17 4.15984 17H5.94931C6.4123 17 6.78893 16.6227 6.78893 16.1589V9.55556H8.76571C9.22871 9.55556 9.6052 9.17813 9.6052 8.71457L9.60626 6.71073C9.60626 6.40606 9.44079 6.12414 9.1743 5.97505C9.05082 5.90599 8.90714 5.86947 8.75898 5.86947H6.78893V4.12769C6.78893 3.78161 6.83542 3.65632 6.87437 3.61214Z" fill="#52BFFF"/>
</svg>
