<svg width="16" height="17" viewBox="0 0 16 17" fill="none" xmlns="http://www.w3.org/2000/svg">
<path fill-rule="evenodd" clip-rule="evenodd" d="M11.2535 0.686432H4.28918C1.92413 0.686432 0 2.61065 0 4.9757V11.94C0 14.3052 1.92413 16.2293 4.28918 16.2293H11.2535C13.6187 16.2293 15.5429 14.3051 15.5429 11.94V4.9757C15.543 2.61065 13.6187 0.686432 11.2535 0.686432ZM7.77141 4.45286C5.56302 4.45286 3.76641 6.24947 3.76641 8.45786C3.76641 10.6662 5.56302 12.4627 7.77141 12.4627C9.9798 12.4627 11.7764 10.6662 11.7764 8.45786C11.7764 6.24947 9.9798 4.45286 7.77141 4.45286ZM7.77141 11.0836C6.32351 11.0836 5.14544 9.90567 5.14544 8.45777C5.14544 7.00978 6.32342 5.83181 7.77141 5.83181C9.2194 5.83181 10.3974 7.00978 10.3974 8.45777C10.3974 9.90567 9.21931 11.0836 7.77141 11.0836ZM11.23 3.57957C11.4177 3.39111 11.6787 3.28354 11.9444 3.28354C12.211 3.28354 12.4721 3.39111 12.6596 3.57957C12.8481 3.76712 12.9556 4.02822 12.9556 4.29483C12.9556 4.56053 12.8481 4.82163 12.6596 5.0101C12.4711 5.19764 12.211 5.30613 11.9444 5.30613C11.6787 5.30613 11.4176 5.19764 11.23 5.0101C11.0415 4.82163 10.9331 4.56062 10.9331 4.29483C10.9331 4.02822 11.0414 3.76712 11.23 3.57957Z" fill="#52BFFF"/>
</svg>
