<svg width="38" height="38" viewBox="0 0 38 38" fill="none" xmlns="http://www.w3.org/2000/svg">
<rect width="38" height="38" rx="19" transform="matrix(-1 0 0 1 38.0002 0)" fill="url(#paint0_linear)"/>
<g clip-path="url(#clip0)">
<path d="M11.4386 17.7872C11.156 17.0237 10.9513 16.2439 11.013 15.4154C11.052 14.9053 11.2437 14.47 11.6173 14.1126C12.0234 13.7292 12.4068 13.3263 12.8065 12.9364C13.3263 12.4231 13.9794 12.4263 14.4992 12.9364C14.8208 13.2516 15.1393 13.5732 15.4577 13.8949C15.7663 14.2035 16.0782 14.5122 16.3869 14.8241C16.9295 15.3732 16.9327 16.0132 16.3901 16.5591C16.0002 16.949 15.6136 17.3421 15.2172 17.7255C15.1133 17.8262 15.1035 17.9107 15.1587 18.0374C15.4187 18.6612 15.7956 19.2168 16.2179 19.7366C17.0692 20.7828 18.0309 21.712 19.1778 22.4301C19.4247 22.5828 19.6944 22.6965 19.9511 22.8362C20.0843 22.9077 20.172 22.8849 20.2792 22.7745C20.6658 22.3748 21.0622 21.9817 21.4586 21.5886C21.9784 21.0752 22.6282 21.072 23.1481 21.5886C23.7849 22.2189 24.4185 22.8524 25.0488 23.4892C25.5784 24.0221 25.5751 24.6751 25.0423 25.2112C24.6816 25.5751 24.3015 25.9195 23.9636 26.2996C23.4697 26.852 22.8459 27.0339 22.1376 26.9949C21.1045 26.9397 20.1525 26.5953 19.233 26.1502C17.1926 25.1592 15.4512 23.7849 13.9923 22.0499C12.9137 20.7633 12.0234 19.3662 11.4386 17.7872ZM26.2444 18.9504C26.6625 18.9504 27.0052 18.6104 26.9657 18.1941C26.6072 14.4133 23.5881 11.3943 19.8073 11.0357C19.3911 10.9962 19.0511 11.3389 19.0511 11.757C19.0511 12.1751 19.3915 12.5094 19.8068 12.5582C22.7523 12.9045 25.0969 15.2492 25.4432 18.1947C25.4921 18.6099 25.8263 18.9504 26.2444 18.9504ZM22.5698 18.1987C22.6561 18.6078 22.9867 18.9504 23.4048 18.9504C23.8229 18.9504 24.1677 18.6094 24.1062 18.1959C23.7767 15.9814 22.0201 14.2247 19.8055 13.8953C19.392 13.8338 19.0511 14.1786 19.0511 14.5967C19.0511 15.0148 19.3937 15.3454 19.8027 15.4317C20.4773 15.574 21.0966 15.9079 21.5951 16.4064C22.0935 16.9049 22.4274 17.5241 22.5698 18.1987Z" fill="white"/>
</g>
<defs>
<linearGradient id="paint0_linear" x1="38" y1="42.5" x2="6.5" y2="2" gradientUnits="userSpaceOnUse">
<stop offset="0.082217" stop-color="#B1E2FF"/>
<stop offset="1" stop-color="#68C7FF"/>
</linearGradient>
<clipPath id="clip0">
<rect width="16" height="16" fill="white" transform="translate(11.0002 11)"/>
</clipPath>
</defs>
</svg>
